<svg id="Layer_1" data-name="Layer 1" xmlns="http://www.w3.org/2000/svg" viewBox="0 0 33.24 33.24"><defs><style>.cls-1{fill:#eb5424;}</style></defs><title>Artboard 14</title><path d="M26.32,27.39H6.92a.25.25,0,0,1-.25-.25V6.1a.25.25,0,0,1,.25-.25h19.4a.25.25,0,0,1,.25.25v21A.25.25,0,0,1,26.32,27.39Zm-19.15-.5h18.9V6.35H7.17Z"/><path d="M26.32,18.26a.25.25,0,0,1-.25-.25V10.78H7.17V18a.25.25,0,0,1-.5,0V10.53a.25.25,0,0,1,.25-.25h19.4a.25.25,0,0,1,.25.25V18A.25.25,0,0,1,26.32,18.26Z"/><circle cx="18.69" cy="8.18" r="0.69"/><path d="M24.33,8.43H21.09a.26.26,0,0,1-.25-.25.25.25,0,0,1,.25-.25h3.24a.25.25,0,0,1,.25.25A.26.26,0,0,1,24.33,8.43Z"/><path class="cls-1" d="M22.39,18l-.07,0A.83.83,0,0,1,22,16.69l0-.06a.83.83,0,0,0-.78-1.36l-.07,0a.84.84,0,0,1-1-1v-.07a.83.83,0,0,0-1.35-.78l-.06,0a.83.83,0,0,1-1.32-.35l0-.07a.83.83,0,0,0-1.57,0l0,.07a.82.82,0,0,1-1.32.35l0,0a.83.83,0,0,0-1.36.78l0,.07a.84.84,0,0,1-1,1l-.07,0a.84.84,0,0,0-.79,1.36l0,.06A.83.83,0,0,1,11,18l-.07,0a.83.83,0,0,0,0,1.57l.07,0a.83.83,0,0,1,.35,1.32l0,.06a.84.84,0,0,0,.79,1.36l.07,0a.84.84,0,0,1,1,1l0,.07a.83.83,0,0,0,1.36.78l0,0a.82.82,0,0,1,1.32.35l0,.07a.83.83,0,0,0,1.57,0l0-.07a.83.83,0,0,1,1.32-.35l.06,0a.83.83,0,0,0,1.35-.78v-.07a.84.84,0,0,1,1-1l.07,0A.83.83,0,0,0,22,21l0-.06a.83.83,0,0,1,.35-1.32l.07,0A.83.83,0,0,0,22.39,18Zm-5.73,2.81a2,2,0,1,1,2-2A2,2,0,0,1,16.66,20.84Z"/><path d="M16.66,21.09a2.28,2.28,0,1,1,2.28-2.28A2.28,2.28,0,0,1,16.66,21.09Zm0-4.05a1.78,1.78,0,1,0,1.78,1.77A1.77,1.77,0,0,0,16.66,17Z"/><path d="M16.66,21.09a2.28,2.28,0,1,1,2.28-2.28A2.28,2.28,0,0,1,16.66,21.09Zm0-4.05a1.78,1.78,0,1,0,1.78,1.77A1.77,1.77,0,0,0,16.66,17Z"/></svg>