<svg id="Layer_1" data-name="Layer 1" xmlns="http://www.w3.org/2000/svg" viewBox="0 0 33.24 33.24"><defs><style>.cls-1{fill:#eb5424;}</style></defs><title>Artboard 53</title><path d="M25.73,25H7.51a.25.25,0,0,1-.25-.25v-7a.25.25,0,0,1,.25-.25H25.73a.25.25,0,0,1,.25.25V24.7A.25.25,0,0,1,25.73,25Zm-18-.5H25.48V17.9H7.76Z"/><path d="M26.52,17.9H6.72a.25.25,0,0,1-.25-.25V13.36a2,2,0,0,1,2-2H24.78a2,2,0,0,1,2,2v4.29A.25.25,0,0,1,26.52,17.9ZM7,17.4h19.3v-4a1.5,1.5,0,0,0-1.49-1.5H8.46A1.5,1.5,0,0,0,7,13.36Z"/><rect class="cls-1" x="10.62" y="15.54" width="3.23" height="4.22"/><rect class="cls-1" x="19.39" y="15.54" width="3.23" height="4.22"/><path d="M21.31,11.86H11.94a.25.25,0,0,1-.25-.25V9.35a1.05,1.05,0,0,1,1.05-1.06H20.5a1.06,1.06,0,0,1,1.06,1.06v2.26A.25.25,0,0,1,21.31,11.86Zm-9.12-.5h8.87v-2a.56.56,0,0,0-.56-.56H12.74a.56.56,0,0,0-.55.56Z"/></svg>