<svg id="Layer_1" data-name="Layer 1" xmlns="http://www.w3.org/2000/svg" viewBox="0 0 33.24 33.24"><defs><style>.cls-1{fill:#eb5424;}</style></defs><title>Artboard 59 copy</title><path d="M16.62,28.49A11.87,11.87,0,1,1,28.49,16.62,11.88,11.88,0,0,1,16.62,28.49Zm0-23.24A11.37,11.37,0,1,0,28,16.62,11.38,11.38,0,0,0,16.62,5.25Z"/><path class="cls-1" d="M16.64,7a9.63,9.63,0,1,0,9.63,9.63A9.63,9.63,0,0,0,16.64,7Zm.06,15c-3.35,0-6.3-.3-5.72-2.67a5.84,5.84,0,0,1,3.95-4,3.31,3.31,0,1,1,3.52,0,5.76,5.76,0,0,1,4,4C22.83,21.62,20.05,22,16.7,22Z"/></svg>