<svg id="Layer_1" data-name="Layer 1" xmlns="http://www.w3.org/2000/svg" viewBox="0 0 33.24 33.24"><defs><style>.cls-1{fill:#fff;}.cls-2{fill:#eb5424;}</style></defs><title>Artboard 43</title><path d="M19,15.86a.25.25,0,1,1,0-.5h7a.25.25,0,0,1,.25.25.25.25,0,0,1-.25.25Z"/><path d="M14.64,14.69a.23.23,0,0,1-.14,0L8.31,10.36A.25.25,0,0,1,8.6,10l6.18,4.29a.23.23,0,0,1,.06.34A.23.23,0,0,1,14.64,14.69Z"/><path d="M6.43,19.43a.23.23,0,0,1-.23-.17.25.25,0,0,1,.15-.32l7.77-2.65a.25.25,0,0,1,.32.16.23.23,0,0,1-.15.31L6.51,19.42Z"/><line class="cls-1" x1="20.5" y1="6.65" x2="17.48" y2="13.53"/><path d="M17.48,13.78l-.1,0a.25.25,0,0,1-.13-.33l3-6.88a.24.24,0,0,1,.33-.13.25.25,0,0,1,.12.33l-3,6.88A.26.26,0,0,1,17.48,13.78Z"/><line class="cls-1" x1="20.87" y1="21.68" x2="18.02" y2="17.85"/><path d="M20.87,21.93a.23.23,0,0,1-.2-.1L17.82,18a.25.25,0,1,1,.4-.3l2.85,3.83a.25.25,0,0,1-.05.35A.23.23,0,0,1,20.87,21.93Z"/><line class="cls-1" x1="14.23" y1="26.46" x2="16.15" y2="18.32"/><path d="M14.23,26.71h-.06a.25.25,0,0,1-.19-.3l1.93-8.13a.25.25,0,1,1,.48.11l-1.92,8.13A.25.25,0,0,1,14.23,26.71Z"/><circle class="cls-2" cx="8.99" cy="10.57" r="1.79"/><circle class="cls-2" cx="26.06" cy="15.54" r="1.79"/><circle class="cls-2" cx="20.76" cy="21.73" r="1.27"/><circle class="cls-2" cx="14.26" cy="26.12" r="2"/><circle class="cls-2" cx="6.72" cy="19.15" r="1.33"/><path d="M16.6,18.57a2.65,2.65,0,1,1,2.22-4.08h0A2.65,2.65,0,0,1,18,18.15,2.59,2.59,0,0,1,16.6,18.57Zm0-4.79a2.15,2.15,0,1,0,1.81,1h0A2.16,2.16,0,0,0,16.59,13.78Z"/><circle class="cls-2" cx="20.58" cy="6.36" r="1.24"/></svg>