<svg id="Layer_1" data-name="Layer 1" xmlns="http://www.w3.org/2000/svg" viewBox="0 0 33.24 33.24"><defs><style>.cls-1{fill:#eb5424;}</style></defs><title>Artboard 56</title><path d="M24.49,27.46H8.75a.25.25,0,0,1-.25-.25V6a.25.25,0,0,1,.25-.25H24.49a.25.25,0,0,1,.25.25V27.21A.25.25,0,0,1,24.49,27.46ZM9,27H24.24V6.28H9Z"/><path d="M22.47,6.21a1.86,1.86,0,0,0,1.86,1.86V6.21Z"/><path d="M10.72,6.21A1.86,1.86,0,0,1,8.86,8.07V6.21Z"/><path d="M22.47,27.07a1.86,1.86,0,0,1,1.86-1.86v1.86Z"/><path d="M10.72,27.07a1.86,1.86,0,0,0-1.86-1.86v1.86Z"/><path class="cls-1" d="M16.62,12.2A4.42,4.42,0,1,0,21,16.62,4.42,4.42,0,0,0,16.62,12.2Zm2.06,2.74-2.5,3.64a.21.21,0,0,1-.18.11h0a.22.22,0,0,1-.17-.07l-1.21-1.21a.24.24,0,0,1,0-.35.25.25,0,0,1,.36,0l1,1,2.33-3.39a.26.26,0,0,1,.35-.07A.25.25,0,0,1,18.68,14.94Z"/></svg>