<svg id="Layer_1" data-name="Layer 1" xmlns="http://www.w3.org/2000/svg" viewBox="0 0 33.24 33.24"><defs><style>.cls-1{fill:#eb5424;}</style></defs><title>Artboard 15</title><path d="M24.86,24.32h-.08a.25.25,0,0,1-.16-.31l3.21-9.86L23.4,10.92a.26.26,0,0,1-.06-.35.25.25,0,0,1,.35-.06l4.58,3.33a.25.25,0,0,1,.09.28l-3.26,10A.24.24,0,0,1,24.86,24.32Z"/><path d="M22.46,27.81H9.51a.25.25,0,0,1-.23-.17L7.36,21.79a.25.25,0,1,1,.48-.16L9.7,27.31H22.46a.25.25,0,0,1,0,.5Z"/><path d="M6.31,18a.25.25,0,0,1-.23-.17l-1.2-3.67A.26.26,0,0,1,5,13.84l11.5-8.36a.26.26,0,0,1,.3,0L20.12,8a.25.25,0,1,1-.3.4L16.62,6,5.42,14.14l1.13,3.49a.26.26,0,0,1-.16.32Z"/><polygon class="cls-1" points="16.62 10.42 9.59 15.54 12.27 23.8 20.97 23.8 23.66 15.54 16.62 10.42"/><path d="M24.9,24.63h0a.23.23,0,0,1-.16-.11L23.6,22.8a.26.26,0,0,1,.08-.35.24.24,0,0,1,.34.08L25,24l1.5-1a.26.26,0,0,1,.35.07.26.26,0,0,1-.08.35L25,24.59A.33.33,0,0,1,24.9,24.63Z"/><path d="M18.2,8.92A.26.26,0,0,1,18,8.71a.25.25,0,0,1,.21-.28l1.76-.28-.28-1.76a.25.25,0,0,1,.21-.29.25.25,0,0,1,.28.21l.32,2a.25.25,0,0,1-.21.28l-2,.32Z"/><path d="M6.56,23.45a.27.27,0,0,1-.12,0,.26.26,0,0,1-.1-.34l1-1.79a.25.25,0,0,1,.34-.1l1.78,1a.25.25,0,0,1,.11.34.26.26,0,0,1-.34.1l-1.57-.85-.85,1.56A.24.24,0,0,1,6.56,23.45Z"/></svg>