<svg id="Layer_1" data-name="Layer 1" xmlns="http://www.w3.org/2000/svg" viewBox="0 0 33.24 33.24"><defs><style>.cls-1{fill:#eb5424;}</style></defs><title>Artboard 9</title><rect class="cls-1" x="9.94" y="13.15" width="13.64" height="2.43"/><path d="M23.58,15.83H9.94a.25.25,0,0,1-.25-.25V13.15a.25.25,0,0,1,.25-.25H23.58a.25.25,0,0,1,.25.25v2.43A.25.25,0,0,1,23.58,15.83Zm-13.39-.5H23.33V13.4H10.19Z"/><rect class="cls-1" x="9.94" y="20.08" width="13.64" height="2.43"/><path d="M23.58,22.76H9.94a.25.25,0,0,1-.25-.25V20.08a.25.25,0,0,1,.25-.25H23.58a.25.25,0,0,1,.25.25v2.43A.25.25,0,0,1,23.58,22.76Zm-13.39-.5H23.33V20.33H10.19Z"/><path d="M24.89,20.33H8.62a.25.25,0,0,1-.25-.25v-4.5a.25.25,0,0,1,.25-.25H24.89a.25.25,0,0,1,.25.25v4.5A.25.25,0,0,1,24.89,20.33Zm-16-.5H24.64v-4H8.87Z"/><path d="M24.89,13.4H8.62a.25.25,0,0,1-.25-.25V8.65a.25.25,0,0,1,.25-.25H24.89a.25.25,0,0,1,.25.25v4.5A.25.25,0,0,1,24.89,13.4Zm-16-.5H24.64v-4H8.87Z"/><path d="M24.89,27.26H8.62A.25.25,0,0,1,8.37,27v-4.5a.25.25,0,0,1,.25-.25H24.89a.25.25,0,0,1,.25.25V27A.25.25,0,0,1,24.89,27.26Zm-16-.5H24.64v-4H8.87Z"/><path d="M8.15,25.32H5.46a.25.25,0,0,1,0-.5H8.15a.25.25,0,0,1,0,.5Z"/><path d="M27.78,25.32H25.12a.25.25,0,1,1,0-.5h2.66a.25.25,0,0,1,0,.5Z"/><rect x="7.34" y="24.16" width="1.05" height="1.79"/><rect x="25.12" y="24.16" width="1.03" height="1.79"/><path class="cls-1" d="M22.25,18H16.52a.25.25,0,0,1,0-.5h5.73a.25.25,0,0,1,0,.5Z"/><path class="cls-1" d="M22.44,25.05H16.72a.25.25,0,0,1,0-.5h5.72a.25.25,0,0,1,0,.5Z"/><path class="cls-1" d="M22.25,11.09H16.52a.25.25,0,0,1-.25-.25.25.25,0,0,1,.25-.25h5.73a.25.25,0,0,1,.25.25A.25.25,0,0,1,22.25,11.09Z"/><circle cx="14.04" cy="10.9" r="0.62"/><circle cx="14.04" cy="17.76" r="0.62"/><circle cx="14.04" cy="24.68" r="0.62"/><path d="M22.86,8.86H18.65a.24.24,0,0,1-.23-.34l.94-2.38A.26.26,0,0,1,19.6,6h2.31a.24.24,0,0,1,.23.15l.95,2.38a.24.24,0,0,1-.23.34ZM19,8.36h3.47l-.75-1.87h-2Z"/></svg>