<svg xmlns="http://www.w3.org/2000/svg" viewBox="0 0 33.24 33.24"><defs><style>.cls-1{isolation:isolate;}.cls-2{mix-blend-mode:multiply;}.cls-3{fill:#eb5424;}</style></defs><title>Artboard 59 copy 4</title><g class="cls-1"><g id="Layer_1" data-name="Layer 1"><path d="M23.73,27.81H9.51a.25.25,0,0,1-.23-.17L4.88,14.12A.26.26,0,0,1,5,13.84l11.5-8.36a.27.27,0,0,1,.3,0l11.5,8.36a.25.25,0,0,1,.09.28L24,27.64A.26.26,0,0,1,23.73,27.81Zm-14-.5H23.55l4.28-13.17L16.62,6,5.42,14.14Z"/><g class="cls-2"><path class="cls-3" d="M16.62,8.53,7.79,15l3.37,10.39H22.08L25.46,15Zm1.22,8.58h0v1.2l-.4.82.4.63-.36.4.45.73-.64.59.55,1.23-1.48.87-1-.95V17.11h0a3,3,0,0,1-1.71-2.68,2.94,2.94,0,1,1,4.15,2.68Z"/></g><g class="cls-2"><circle class="cls-3" cx="16.62" cy="13.56" r="0.63"/></g></g></g></svg>