<svg id="Layer_1" data-name="Layer 1" xmlns="http://www.w3.org/2000/svg" viewBox="0 0 33.24 33.24"><defs><style>.cls-1{fill:#eb5424;}</style></defs><title>Artboard 21</title><path d="M16.62,27.37c-4.73,0-9.76-.89-9.76-2.53V8.4a.25.25,0,0,1,.5,0V24.84c0,.85,3.52,2,9.26,2s9.27-1.18,9.27-2V8.4a.25.25,0,0,1,.25-.25.26.26,0,0,1,.25.25V24.84C26.39,26.48,21.36,27.37,16.62,27.37Z"/><ellipse class="cls-1" cx="16.62" cy="8.4" rx="9.51" ry="2.28"/><path d="M16.62,10.94c-4.73,0-9.76-.89-9.76-2.54s5-2.53,9.76-2.53,9.77.89,9.77,2.53S21.36,10.94,16.62,10.94Zm0-4.57c-5.74,0-9.26,1.19-9.26,2s3.52,2,9.26,2,9.27-1.19,9.27-2S22.36,6.37,16.62,6.37Z"/><path d="M16.62,21.85c-4.73,0-9.76-.89-9.76-2.53a.25.25,0,0,1,.5,0c0,.85,3.52,2,9.26,2s9.27-1.18,9.27-2a.25.25,0,0,1,.25-.25.25.25,0,0,1,.25.25C26.39,21,21.36,21.85,16.62,21.85Z"/><path d="M16.62,16.39c-4.73,0-9.76-.88-9.76-2.53a.25.25,0,0,1,.5,0c0,.85,3.52,2,9.26,2s9.27-1.18,9.27-2a.25.25,0,0,1,.25-.25.25.25,0,0,1,.25.25C26.39,15.51,21.36,16.39,16.62,16.39Z"/><path d="M16.62,13.5a.25.25,0,0,1-.25-.25.25.25,0,0,1,.25-.25c1.19,0,2.34-.05,3.43-.15a.26.26,0,0,1,.28.23.25.25,0,0,1-.23.27C19,13.45,17.82,13.5,16.62,13.5Z"/><path d="M22.84,13a.26.26,0,0,1-.25-.2.25.25,0,0,1,.2-.29l.77-.18a.25.25,0,0,1,.12.48c-.25.07-.51.13-.79.18Z"/><path d="M16.62,18.92a.25.25,0,0,1,0-.5c1.18,0,2.34-.05,3.43-.16a.27.27,0,0,1,.28.23.25.25,0,0,1-.23.27C19,18.87,17.82,18.92,16.62,18.92Z"/><path d="M22.84,18.36a.25.25,0,0,1-.05-.49l.77-.18a.24.24,0,0,1,.3.18.24.24,0,0,1-.18.3l-.79.19Z"/><path d="M16.62,24.33a.25.25,0,0,1,0-.5c1.19,0,2.34,0,3.43-.15a.26.26,0,0,1,.28.22.25.25,0,0,1-.23.27C19,24.28,17.83,24.33,16.62,24.33Z"/><path d="M22.84,23.78a.26.26,0,0,1-.25-.2.26.26,0,0,1,.2-.3c.27-.05.52-.11.77-.18a.25.25,0,0,1,.3.18.25.25,0,0,1-.18.31l-.79.18Z"/></svg>