<svg xmlns="http://www.w3.org/2000/svg" viewBox="0 0 33.24 33.24"><defs><style>.cls-1{isolation:isolate;}.cls-2{mix-blend-mode:multiply;}.cls-3{fill:#eb5424;}.cls-4{fill:#fff;}</style></defs><title>Artboard 20</title><g class="cls-1"><g id="Layer_1" data-name="Layer 1"><path d="M27.35,24.78H5.89a1,1,0,0,1-1-1V9.48a1,1,0,0,1,1-1H27.35a1,1,0,0,1,1,1V23.76A1,1,0,0,1,27.35,24.78ZM5.89,9a.52.52,0,0,0-.52.52V23.76a.52.52,0,0,0,.52.52H27.35a.52.52,0,0,0,.52-.52V9.48A.52.52,0,0,0,27.35,9Z"/><g class="cls-2"><rect class="cls-3" x="7.07" y="10.58" width="19.1" height="12.08"/></g><path class="cls-4" d="M10.26,19.17a.25.25,0,0,1-.18-.42l2.43-2.43-2.43-2.43a.24.24,0,0,1,0-.35.25.25,0,0,1,.36,0l2.6,2.6a.25.25,0,0,1,0,.36l-2.6,2.6A.26.26,0,0,1,10.26,19.17Z"/><path class="cls-4" d="M17.55,19.35H14.89a.25.25,0,0,1,0-.5h2.66a.25.25,0,1,1,0,.5Z"/></g></g></svg>