<?xml version="1.0" encoding="utf-8"?>
<!-- Generator: Adobe Illustrator 23.0.4, SVG Export Plug-In . SVG Version: 6.00 Build 0)  -->
<svg version="1.1" id="Layer_1" xmlns="http://www.w3.org/2000/svg" xmlns:xlink="http://www.w3.org/1999/xlink" x="0px" y="0px"
	 viewBox="0 0 33.2 33.2" style="enable-background:new 0 0 33.2 33.2;" xml:space="preserve">
<style type="text/css">
	.st0{fill:#EB5424;}
</style>
<title>Artboard 13</title>
<g>
	<g>
		<path d="M16.6,28c-5.8,0.1-11.1-4.9-11.3-11.1C5.1,10.6,10,5.4,15.9,5.4c0.2,0,0.4,0,0.7,0c0.1,0,0.2,0.1,0.2,0.2
			c0.3,1.8,1.1,2.6,2.7,2.7c0.1,0,0.1,0,0.2,0.1c0.1,0,0.1,0.1,0,0.2c0,0.2,0,0.3,0,0.5c0,1.6,1.3,2.9,2.8,2.9c0,0,0,0,0,0
			c0.5,0,1-0.1,1.5-0.4c0.1,0,0.1,0,0.2,0c0.1,0,0.1,0.1,0.1,0.1c0.5,1.2,1.6,1.9,2.9,1.9c0.1,0,0.2,0.1,0.2,0.2
			c1.6,6.1-2.1,12.3-8.1,13.8C18.5,27.9,17.6,28,16.6,28z M16.4,5.8c-6,0.1-10.7,5.1-10.6,11c0.1,6,5.1,10.7,11,10.6
			s10.7-5.1,10.6-11c0-0.8-0.1-1.5-0.3-2.3c-1.3-0.1-2.4-0.8-3-1.9c-0.5,0.2-0.9,0.3-1.5,0.3c-1.9,0-3.4-1.5-3.4-3.4
			c0-0.1,0-0.2,0-0.3C17.8,8.6,16.5,7.4,16.4,5.8z"/>
		<path class="st0" d="M18.1,10c-0.2,1.9,2,4.7,5.3,3.7c0.4,1,0.9,1.4,2.6,1.8c0.6,5.4-4.2,10.4-9.4,10.4c-5.1,0-9.2-4-9.3-9.1
			c0-0.1,0-0.1,0-0.2c0.1-4.9,4-8.8,8-8.9C15.5,9,16.7,10.1,18.1,10z"/>
		<g>
			<path d="M14,8.7c0,0-0.1,0-0.1,0L12.7,8c-0.1,0-0.2-0.2-0.2-0.3s0.2-0.2,0.3-0.2c0,0,0.1,0,0.1,0.1l1.1,0.6
				c0.1,0.1,0.2,0.2,0.1,0.3c0,0,0,0,0,0C14.2,8.6,14.1,8.7,14,8.7z"/>
			<path d="M14.8,22.1c-0.1,0-0.3-0.1-0.3-0.2c0-0.1,0.1-0.2,0.2-0.3l1.1-0.4c0.1-0.1,0.3,0,0.3,0.1c0,0,0,0,0,0
				c0,0.1,0,0.3-0.2,0.3L14.8,22.1L14.8,22.1z"/>
			<path d="M18.3,12.5c-0.1,0-0.3-0.1-0.3-0.2c0-0.1,0.1-0.2,0.1-0.2l1.2-0.7c0.1-0.1,0.3,0,0.3,0.1c0,0,0,0,0,0
				c0.1,0.1,0,0.3-0.1,0.3l-1.2,0.7C18.4,12.5,18.3,12.5,18.3,12.5z"/>
			<path d="M13.3,14.1c-0.1,0-0.1,0-0.2-0.1l-0.7-0.6c-0.1-0.1-0.1-0.3,0-0.4c0.1-0.1,0.3-0.1,0.4,0l0.7,0.6c0.1,0.1,0.1,0.3,0,0.4
				c0,0,0,0,0,0C13.4,14,13.3,14,13.3,14.1z"/>
			<path d="M9.8,16c-0.1,0-0.2,0-0.2-0.1c-0.1-0.1,0-0.3,0.1-0.3c0,0,0,0,0,0l0.8-0.6c0.1-0.1,0.3-0.1,0.4,0c0.1,0.1,0.1,0.3,0,0.4
				c0,0,0,0,0,0L9.9,16C9.9,16,9.8,16,9.8,16z"/>
			<path d="M8.8,10.8c-0.1,0-0.1,0-0.2-0.1l-0.5-0.6c-0.1-0.1-0.1-0.3,0-0.4c0.1-0.1,0.3-0.1,0.4,0L9,10.4c0.1,0.1,0.1,0.3,0,0.4
				C9,10.8,8.9,10.8,8.8,10.8z"/>
			<path d="M7.4,20.4c-0.1,0-0.2-0.1-0.2-0.2c0-0.1,0.1-0.3,0.2-0.3l1.1-0.1c0.1,0,0.3,0.1,0.3,0.2c0,0.1-0.1,0.3-0.2,0.3L7.4,20.4
				L7.4,20.4z"/>
			<path d="M12,25.7c-0.1,0-0.2-0.1-0.2-0.2V25c0-0.1,0.1-0.2,0.2-0.2s0.2,0.1,0.2,0.2v0.4C12.2,25.6,12.1,25.7,12,25.7z"/>
			<path d="M25.8,19.2c0,0-0.1,0-0.1,0l-0.8-0.4c-0.1-0.1-0.2-0.2-0.1-0.3s0.2-0.2,0.3-0.1l0,0l0.8,0.4c0.1,0.1,0.2,0.2,0.1,0.3
				c0,0,0,0,0,0C26,19.1,25.9,19.2,25.8,19.2z"/>
			<path d="M22.1,14.6c-0.1,0-0.2-0.1-0.2-0.2c-0.1-0.1,0-0.3,0.1-0.3c0,0,0,0,0,0l0.9-0.4c0.1,0,0.3,0,0.3,0.1c0,0.1,0,0.3-0.1,0.3
				L22.1,14.6L22.1,14.6z"/>
			<path d="M17.4,17.9c-0.1,0-0.1,0-0.2-0.1l-0.6-0.6c-0.1-0.1-0.1-0.3,0-0.4s0.3-0.1,0.4,0l0.6,0.6c0.1,0.1,0.1,0.3,0,0.4
				C17.5,17.9,17.5,17.9,17.4,17.9z"/>
			<path d="M12.7,18.8L12.7,18.8c-0.2,0-0.3-0.1-0.3-0.3c0,0,0,0,0,0l0.1-0.3c0-0.1,0.2-0.2,0.3-0.2c0.1,0,0.2,0.2,0.2,0.3l0,0.3
				C13,18.7,12.9,18.8,12.7,18.8z"/>
			<path d="M19.8,23.2L19.8,23.2c-0.1,0-0.2-0.1-0.2-0.3c0,0,0,0,0,0l0.2-1.5c0-0.1,0.1-0.2,0.3-0.2c0,0,0,0,0,0
				c0.1,0,0.2,0.1,0.2,0.3c0,0,0,0,0,0L20,23C20,23.1,19.9,23.2,19.8,23.2z"/>
		</g>
	</g>
</g>
</svg>
