<svg id="Layer_1" data-name="Layer 1" xmlns="http://www.w3.org/2000/svg" viewBox="0 0 33.24 33.24"><defs><style>.cls-1{fill:#eb5424;}</style></defs><title>Artboard 63</title><path d="M26.86,26.57h-1.8a.25.25,0,0,1-.25-.25.25.25,0,0,1,.25-.25h1.8c1.08,0,2-1.95,2-4.25s-.92-4.25-2-4.25h-1.8a.25.25,0,0,1-.25-.25.25.25,0,0,1,.25-.25h1.8c1.4,0,2.5,2.08,2.5,4.75S28.26,26.57,26.86,26.57Z"/><path d="M25.06,26.57a2,2,0,0,1-1.64-1.14.25.25,0,0,1,.09-.34.25.25,0,0,1,.34.08,1.55,1.55,0,0,0,1.21.9c1.08,0,2-1.95,2-4.25s-.92-4.25-2-4.25a1.48,1.48,0,0,0-1.13.77.25.25,0,1,1-.42-.28,1.93,1.93,0,0,1,1.55-1c1.4,0,2.5,2.08,2.5,4.75S26.46,26.57,25.06,26.57Z"/><path d="M23.89,25.55a.25.25,0,0,1-.25-.25.25.25,0,0,1,.25-.25c.73,0,1.52-1.32,1.52-3.29s-.79-3.29-1.52-3.29h-5a.25.25,0,0,1,0-.5H24l.1,0c1,.21,1.8,1.79,1.8,3.77S25,25.55,23.89,25.55Z"/><path d="M14.34,18.47H9.53a.25.25,0,0,1,0-.5h4.81a.25.25,0,1,1,0,.5Z"/><path d="M14.3,25.55H9.63a.25.25,0,0,1-.25-.25.25.25,0,0,1,.25-.25H14.3a.26.26,0,0,1,.25.25A.25.25,0,0,1,14.3,25.55Z"/><path d="M24,25.55H19a.25.25,0,0,1-.25-.25.25.25,0,0,1,.25-.25h5a.25.25,0,0,1,.25.25A.25.25,0,0,1,24,25.55Z"/><path d="M8.18,26.57H6.38a.26.26,0,0,1-.25-.25.25.25,0,0,1,.25-.25h1.8c1.09,0,2-1.95,2-4.25s-.91-4.25-2-4.25H6.38a.26.26,0,0,1-.25-.25.25.25,0,0,1,.25-.25h1.8c1.41,0,2.5,2.08,2.5,4.75S9.59,26.57,8.18,26.57Z"/><path d="M6.38,26.57c-1.4,0-2.5-2.09-2.5-4.75s1.1-4.75,2.5-4.75,2.5,2.08,2.5,4.75S7.79,26.57,6.38,26.57Zm0-9c-1.08,0-2,1.94-2,4.25s.92,4.25,2,4.25,2-1.95,2-4.25S7.47,17.57,6.38,17.57Z"/><ellipse cx="6.26" cy="21.87" rx="0.87" ry="2.39"/><path class="cls-1" d="M16.55,15.43a.25.25,0,0,1-.25-.25v-.25a.25.25,0,0,1,.25-.25.25.25,0,0,1,.25.25v.25A.25.25,0,0,1,16.55,15.43Zm0-2.25a.25.25,0,0,1-.25-.25v-2a.25.25,0,0,1,.25-.25.25.25,0,0,1,.25.25v2A.25.25,0,0,1,16.55,13.18Zm0-4a.25.25,0,0,1-.25-.25v-2a.25.25,0,0,1,.25-.25.25.25,0,0,1,.25.25v2A.25.25,0,0,1,16.55,9.18Z"/><path class="cls-1" d="M17.52,26.57h-1.8a.25.25,0,0,1-.25-.25.25.25,0,0,1,.25-.25h1.8c1.09,0,2-1.95,2-4.25s-.91-4.25-2-4.25h-1.8a.25.25,0,0,1-.25-.25.25.25,0,0,1,.25-.25h1.8c1.4,0,2.5,2.08,2.5,4.75S18.92,26.57,17.52,26.57Z"/><path class="cls-1" d="M15.72,26.57a1.78,1.78,0,0,1-1.65-1.15.26.26,0,0,1,.11-.34.25.25,0,0,1,.34.11c.38.73.74.88,1.2.88,1.09,0,2-1.95,2-4.25s-.91-4.25-2-4.25a1.56,1.56,0,0,0-1.17.83.24.24,0,0,1-.34.07.25.25,0,0,1-.08-.34,2,2,0,0,1,1.59-1.06c1.4,0,2.5,2.08,2.5,4.75S17.12,26.57,15.72,26.57Z"/><path class="cls-1" d="M14.3,25.55a.25.25,0,0,1-.25-.25.25.25,0,0,1,.25-.25c.77,0,1.67-1.43,1.67-3.29s-.79-3.29-1.52-3.29a.25.25,0,0,1,0-.5c1.13,0,2,1.67,2,3.79S15.47,25.55,14.3,25.55Z"/></svg>