<svg xmlns="http://www.w3.org/2000/svg" viewBox="0 0 33.24 33.24"><defs><style>.cls-1{isolation:isolate;}.cls-2{mix-blend-mode:multiply;}.cls-3{fill:#eb5424;}</style></defs><title>Artboard 49</title><g class="cls-1"><g id="Layer_1" data-name="Layer 1"><path d="M23.73,27.81H9.51a.25.25,0,0,1-.23-.17L4.88,14.12A.26.26,0,0,1,5,13.84l11.5-8.36a.27.27,0,0,1,.3,0l11.5,8.36a.25.25,0,0,1,.09.28L24,27.64A.26.26,0,0,1,23.73,27.81Zm-14-.5H23.55l4.28-13.18L16.62,6,5.42,14.13Z"/><g class="cls-2"><path class="cls-3" d="M16.62,8.53,7.79,15l3.37,10.38H22.08L25.45,15Zm0,13.55c-2.32,0-4.36-.21-3.95-1.85a4,4,0,0,1,3.1-2.84,2.29,2.29,0,1,1,1.68,0,4,4,0,0,1,3.12,2.87C20.84,21.8,18.92,22.08,16.61,22.08Z"/></g></g></g></svg>