<svg xmlns="http://www.w3.org/2000/svg" viewBox="0 0 33.24 33.24"><defs><style>.cls-1{isolation:isolate;}.cls-2{mix-blend-mode:multiply;}.cls-3{fill:#eb5424;}</style></defs><title>Artboard 16</title><g class="cls-1"><g id="Layer_1" data-name="Layer 1"><path d="M24.49,27.46H8.75a.25.25,0,0,1-.25-.25V6a.25.25,0,0,1,.25-.25H24.49a.25.25,0,0,1,.25.25V27.21A.25.25,0,0,1,24.49,27.46ZM9,27H24.24V6.28H9Z"/><path d="M16.62,18.51a4.84,4.84,0,1,1,4.83-4.83A4.84,4.84,0,0,1,16.62,18.51Zm0-9.17A4.34,4.34,0,1,0,21,13.68,4.34,4.34,0,0,0,16.62,9.34Z"/><path d="M21.2,21.15H12a.25.25,0,0,1,0-.5H21.2a.25.25,0,0,1,0,.5Z"/><path d="M21.2,23.79H12a.25.25,0,0,1,0-.5H21.2a.25.25,0,0,1,0,.5Z"/><g class="cls-2"><circle class="cls-3" cx="16.59" cy="13.11" r="1.62"/><path class="cls-3" d="M13.8,16.42a2.9,2.9,0,0,1,2.79-2.09,2.94,2.94,0,0,1,2.81,2.11c.19,1.08-1.14,1.82-2.78,1.82S13.51,17.58,13.8,16.42Z"/></g></g></g></svg>