<svg id="Layer_1" data-name="Layer 1" xmlns="http://www.w3.org/2000/svg" viewBox="0 0 33.24 33.24"><defs><style>.cls-1{fill:#eb5424;}</style></defs><title>Artboard 19</title><path d="M20.69,27.68H12.55a.27.27,0,0,1-.2-.09.29.29,0,0,1,0-.22l.86-3.18.48.13-.77,2.86h7.49l-.76-2.88.48-.13.84,3.2a.25.25,0,0,1,0,.22A.25.25,0,0,1,20.69,27.68Z"/><path d="M26.92,24.34H6.32a1.8,1.8,0,0,1-1.8-1.8V7.36a1.8,1.8,0,0,1,1.8-1.8h20.6a1.81,1.81,0,0,1,1.81,1.8V22.54A1.81,1.81,0,0,1,26.92,24.34ZM6.32,6.06A1.3,1.3,0,0,0,5,7.36V22.54a1.3,1.3,0,0,0,1.3,1.3h20.6a1.31,1.31,0,0,0,1.31-1.3V7.36a1.31,1.31,0,0,0-1.31-1.3Z"/><path d="M26.22,22.25H7a.35.35,0,0,1-.34-.35V8A.34.34,0,0,1,7,7.65h19.2a.34.34,0,0,1,.34.34V21.9A.35.35,0,0,1,26.22,22.25Zm-19-.5H26.06V8.15H7.18Z"/><path class="cls-1" d="M21.8,14.28l-.06,0a.71.71,0,0,1-.31-1.13l0,0a.71.71,0,0,0-.67-1.16h-.06a.72.72,0,0,1-.83-.83l0-.06a.72.72,0,0,0-1.17-.67l0,0a.71.71,0,0,1-1.13-.3l0-.07a.72.72,0,0,0-1.34,0l0,.07a.72.72,0,0,1-1.13.3l-.05,0a.71.71,0,0,0-1.16.67v.06a.71.71,0,0,1-.82.83H13a.71.71,0,0,0-.68,1.16l0,0a.71.71,0,0,1-.31,1.13l-.06,0a.71.71,0,0,0,0,1.34l.06,0a.71.71,0,0,1,.3,1.13l0,.05A.71.71,0,0,0,13,18h.06a.71.71,0,0,1,.82.83v.06a.71.71,0,0,0,1.16.67l.05,0a.71.71,0,0,1,1.13.3l0,.06a.71.71,0,0,0,1.34,0l0-.06a.71.71,0,0,1,1.13-.3l0,0a.72.72,0,0,0,1.17-.67l0-.06a.72.72,0,0,1,.83-.83h.06a.71.71,0,0,0,.67-1.16l0-.05a.71.71,0,0,1,.31-1.13l.06,0A.71.71,0,0,0,21.8,14.28Zm-4.91,2.4A1.74,1.74,0,1,1,18.63,15,1.73,1.73,0,0,1,16.89,16.68Z"/><path d="M16.89,16.93a2,2,0,1,1,2-2A2,2,0,0,1,16.89,16.93Zm0-3.47A1.49,1.49,0,1,0,18.38,15,1.49,1.49,0,0,0,16.89,13.46Z"/><path d="M16.89,16.93a2,2,0,1,1,2-2A2,2,0,0,1,16.89,16.93Zm0-3.47A1.49,1.49,0,1,0,18.38,15,1.49,1.49,0,0,0,16.89,13.46Z"/></svg>