<svg xmlns="http://www.w3.org/2000/svg" viewBox="0 0 33.24 33.24"><defs><style>.cls-1{isolation:isolate;}.cls-2{mix-blend-mode:multiply;}.cls-3{fill:#eb5424;}</style></defs><title>Artboard 59 copy 5</title><g class="cls-1"><g id="Layer_1" data-name="Layer 1"><path d="M28.12,25.87h-23a.25.25,0,0,1-.25-.25v-18a.25.25,0,0,1,.25-.25h23a.25.25,0,0,1,.25.25v18A.25.25,0,0,1,28.12,25.87Zm-22.75-.5h22.5V7.87H5.37Z"/><path d="M28.12,10.87h-23a.25.25,0,1,1,0-.5h23a.25.25,0,0,1,0,.5Z"/><circle cx="6.62" cy="9.12" r="0.5"/><circle cx="8.62" cy="9.12" r="0.5"/><circle cx="10.62" cy="9.12" r="0.5"/><path d="M20.62,19.87h-8a.25.25,0,0,1-.25-.25v-2a.25.25,0,0,1,.25-.25h8a.25.25,0,0,1,.25.25v2A.25.25,0,0,1,20.62,19.87Zm-7.75-.5h7.5v-1.5h-7.5Z"/><g class="cls-2"><rect class="cls-3" x="5.38" y="10.86" width="22.48" height="2.52"/></g></g></g></svg>