<svg xmlns="http://www.w3.org/2000/svg" viewBox="0 0 33.24 33.24"><defs><style>.cls-1{isolation:isolate;}.cls-2{mix-blend-mode:multiply;}.cls-3{fill:#eb5424;}</style></defs><title>Artboard 18</title><g class="cls-1"><g id="Layer_1" data-name="Layer 1"><path d="M21.89,29.17H11.35a1.94,1.94,0,0,1-1.94-1.94V6a1.94,1.94,0,0,1,1.94-1.94H21.89A1.94,1.94,0,0,1,23.83,6V27.23A1.94,1.94,0,0,1,21.89,29.17ZM11.35,4.57A1.45,1.45,0,0,0,9.91,6V27.23a1.44,1.44,0,0,0,1.44,1.44H21.89a1.43,1.43,0,0,0,1.44-1.44V6a1.44,1.44,0,0,0-1.44-1.44Z"/><path d="M23.15,8.53H10.09a.25.25,0,0,1,0-.5H23.15a.25.25,0,0,1,0,.5Z"/><path d="M18.32,6.5h-3.4a.25.25,0,0,1,0-.5h3.4a.25.25,0,0,1,0,.5Z"/><path d="M23.37,24.62H9.87a.25.25,0,0,1,0-.5h13.5a.25.25,0,0,1,0,.5Z"/><g class="cls-2"><circle class="cls-3" cx="16.62" cy="26.69" r="1.03"/></g><path class="cls-3" d="M21.46,16l-.07,0a.72.72,0,0,1-.3-1.13l0-.05a.71.71,0,0,0-.67-1.16H20.4a.72.72,0,0,1-.83-.83v-.06A.71.71,0,0,0,18.42,12l0,0a.71.71,0,0,1-1.13-.3l0-.06a.71.71,0,0,0-1.34,0l0,.06a.71.71,0,0,1-1.13.3l-.05,0a.71.71,0,0,0-1.16.67v.06a.71.71,0,0,1-.82.83h-.07A.71.71,0,0,0,12,14.75l0,.05a.71.71,0,0,1-.3,1.13l-.06,0a.71.71,0,0,0,0,1.34l.06,0a.71.71,0,0,1,.3,1.13l0,0a.71.71,0,0,0,.67,1.16h.06a.71.71,0,0,1,.83.83v.06a.71.71,0,0,0,1.16.67l.05,0a.72.72,0,0,1,1.13.3l0,.07a.72.72,0,0,0,1.34,0l0-.07a.71.71,0,0,1,1.13-.3l0,0a.71.71,0,0,0,1.16-.67v-.06a.71.71,0,0,1,.83-.83h.06a.71.71,0,0,0,.67-1.16l0,0a.72.72,0,0,1,.3-1.13l.07,0A.71.71,0,0,0,21.46,16Zm-4.91,2.41a1.74,1.74,0,1,1,1.74-1.74A1.74,1.74,0,0,1,16.55,18.36Z"/><path d="M16.55,18.61a2,2,0,1,1,2-2A2,2,0,0,1,16.55,18.61Zm0-3.47a1.49,1.49,0,0,0,0,3,1.49,1.49,0,1,0,0-3Z"/><path d="M16.55,18.61a2,2,0,1,1,2-2A2,2,0,0,1,16.55,18.61Zm0-3.47a1.49,1.49,0,0,0,0,3,1.49,1.49,0,1,0,0-3Z"/></g></g></svg>