<svg id="Layer_1" data-name="Layer 1" xmlns="http://www.w3.org/2000/svg" viewBox="0 0 33.24 33.24"><defs><style>.cls-1{fill:#eb5424;}</style></defs><title>Artboard 51</title><path d="M26.12,24.86H10.19a.25.25,0,1,1,0-.5H26.12a.25.25,0,1,1,0,.5Z"/><path d="M8.31,24.86H6.63a.25.25,0,1,1,0-.5H8.31a.25.25,0,1,1,0,.5Z"/><path d="M23.05,22.19H7.12a.25.25,0,0,1,0-.5H23.05a.25.25,0,0,1,0,.5Z"/><path d="M26.61,22.19H24.93a.25.25,0,0,1,0-.5h1.68a.25.25,0,0,1,0,.5Z"/><rect class="cls-1" x="14.53" y="20.09" width="4.68" height="6.11" rx="2.34"/><path d="M16.87,26.45a2.6,2.6,0,0,1-2.59-2.59V22.43a2.59,2.59,0,0,1,5.18,0v1.43A2.6,2.6,0,0,1,16.87,26.45Zm0-6.11a2.1,2.1,0,0,0-2.09,2.09v1.43a2.09,2.09,0,1,0,4.18,0V22.43A2.1,2.1,0,0,0,16.87,20.34Z"/><path d="M16.93,20.34a.25.25,0,0,1-.25-.25V16.24a.25.25,0,0,1,.25-.25.25.25,0,0,1,.25.25v3.85A.25.25,0,0,1,16.93,20.34Z"/><path d="M21.15,16.46H12.3a2.14,2.14,0,0,1-2.14-2.14V8.94A2.14,2.14,0,0,1,12.3,6.8h8.85A2.14,2.14,0,0,1,23.3,8.94v5.38A2.14,2.14,0,0,1,21.15,16.46ZM12.3,7.3a1.64,1.64,0,0,0-1.64,1.64v5.38A1.65,1.65,0,0,0,12.3,16h8.85a1.65,1.65,0,0,0,1.65-1.64V8.94A1.64,1.64,0,0,0,21.15,7.3Z"/><path class="cls-1" d="M19.21,14.23a.25.25,0,0,1-.18-.08.25.25,0,0,1,0-.36l1.07-1H15.57a.25.25,0,0,1-.25-.25.25.25,0,0,1,.25-.25h5.19a.26.26,0,0,1,.17.44l-1.55,1.41A.23.23,0,0,1,19.21,14.23Z"/><path class="cls-1" d="M17.93,10.87H12.74a.25.25,0,0,1-.23-.15.25.25,0,0,1,.05-.27L13.83,9a.26.26,0,0,1,.36,0,.24.24,0,0,1,0,.35l-.9,1h4.63a.25.25,0,0,1,.25.25A.25.25,0,0,1,17.93,10.87Z"/></svg>