<svg xmlns="http://www.w3.org/2000/svg" viewBox="0 0 33.24 33.24"><defs><style>.cls-1{isolation:isolate;}.cls-2{fill:#eb5424;}.cls-3{mix-blend-mode:multiply;}</style></defs><title>Artboard 12</title><g class="cls-1"><g id="Layer_1" data-name="Layer 1"><polygon class="cls-2" points="23.58 16.69 9.94 16.69 9.94 14.26 19.1 14.26 19.3 14.89 23.58 14.89 23.58 16.69"/><path d="M23.58,16.94H9.94a.25.25,0,0,1-.25-.25V14.26A.25.25,0,0,1,9.94,14H19.1a.24.24,0,0,1,.23.17l.15.46h4.1a.25.25,0,0,1,.25.25v1.8A.25.25,0,0,1,23.58,16.94Zm-13.39-.5H23.33v-1.3h-4a.26.26,0,0,1-.24-.17l-.14-.46H10.19Z"/><rect class="cls-2" x="9.94" y="21.19" width="13.64" height="2.43"/><path d="M23.58,23.87H9.94a.25.25,0,0,1-.25-.25V21.19a.25.25,0,0,1,.25-.25H23.58a.25.25,0,0,1,.25.25v2.43A.25.25,0,0,1,23.58,23.87Zm-13.39-.5H23.33V21.44H10.19Z"/><path d="M24.89,21.44H8.62a.25.25,0,0,1-.25-.25v-4.5a.25.25,0,0,1,.25-.25H24.89a.25.25,0,0,1,.25.25v4.5A.25.25,0,0,1,24.89,21.44Zm-16-.5H24.64v-4H8.87Z"/><path d="M19.1,14.51H8.62a.25.25,0,0,1-.25-.25V9.76a.25.25,0,0,1,.25-.25h9a.25.25,0,0,1,0,.5H8.87v4H19.1a.25.25,0,0,1,0,.5Z"/><path d="M24.89,28.37H8.62a.25.25,0,0,1-.25-.25v-4.5a.25.25,0,0,1,.25-.25H24.89a.25.25,0,0,1,.25.25v4.5A.25.25,0,0,1,24.89,28.37Zm-16-.5H24.64v-4H8.87Z"/><path d="M8.15,26.43H5.46a.25.25,0,0,1,0-.5H8.15a.25.25,0,0,1,0,.5Z"/><path d="M27.78,26.43H25.12a.25.25,0,1,1,0-.5h2.66a.25.25,0,0,1,0,.5Z"/><rect x="7.34" y="25.27" width="1.05" height="1.79"/><rect x="25.12" y="25.27" width="1.03" height="1.79"/><path class="cls-2" d="M22.25,19.06H16.52a.25.25,0,0,1,0-.5h5.73a.25.25,0,0,1,0,.5Z"/><path class="cls-2" d="M22.44,26.16H16.72a.25.25,0,0,1,0-.5h5.72a.25.25,0,0,1,0,.5Z"/><path class="cls-2" d="M18.32,12.2h-1.8a.25.25,0,0,1-.25-.25.25.25,0,0,1,.25-.25h1.8a.25.25,0,0,1,.25.25A.25.25,0,0,1,18.32,12.2Z"/><circle cx="14.04" cy="12.01" r="0.62"/><circle cx="14.04" cy="18.87" r="0.62"/><circle cx="14.04" cy="25.79" r="0.62"/><path d="M25.65,15.14H19.3a.26.26,0,0,1-.24-.17l-2-6a.25.25,0,0,1,.09-.27l5.14-3.73a.23.23,0,0,1,.29,0l5.14,3.73a.25.25,0,0,1,.09.27l-2,6A.24.24,0,0,1,25.65,15.14Zm-6.17-.5h6L27.31,9,22.47,5.44,17.64,9Z"/><g class="cls-3"><polygon class="cls-2" points="22.48 7.15 19.25 9.5 20.48 13.29 24.47 13.29 25.7 9.5 22.48 7.15"/></g></g></g></svg>