<svg xmlns="http://www.w3.org/2000/svg" viewBox="0 0 33.24 33.24"><defs><style>.cls-1{isolation:isolate;}.cls-2{mix-blend-mode:multiply;}.cls-3{fill:#eb5424;}</style></defs><title>Artboard 59</title><g class="cls-1"><g id="Layer_1" data-name="Layer 1"><path d="M25.84,28.37H7.4a.25.25,0,0,1-.25-.25v-23a.25.25,0,0,1,.25-.25H25.84a.25.25,0,0,1,.25.25v23A.25.25,0,0,1,25.84,28.37Zm-18.19-.5H25.59V5.37H7.65Z"/><path d="M25.84,16.69H7.4a.25.25,0,0,1-.25-.25V9.33a.25.25,0,0,1,.25-.25H25.84a.25.25,0,0,1,.25.25v7.11A.25.25,0,0,1,25.84,16.69Zm-18.19-.5H25.59V9.58H7.65Z"/><circle cx="18.59" cy="7.1" r="0.66"/><path d="M23.94,7.35H20.87a.25.25,0,0,1-.25-.25.25.25,0,0,1,.25-.25h3.07a.25.25,0,0,1,.25.25A.25.25,0,0,1,23.94,7.35Z"/><path d="M18.37,19.79H14.88a.25.25,0,0,1,0-.5h3.49a.25.25,0,0,1,0,.5Z"/><path d="M15.44,23H9.84a.25.25,0,0,1-.25-.25.25.25,0,0,1,.25-.25h5.6a.25.25,0,0,1,.25.25A.25.25,0,0,1,15.44,23Z"/><path d="M15.44,25.25H9.84a.25.25,0,0,1,0-.5h5.6a.25.25,0,0,1,0,.5Z"/><path d="M23.4,23H17.81a.25.25,0,0,1-.25-.25.25.25,0,0,1,.25-.25H23.4a.25.25,0,0,1,.25.25A.25.25,0,0,1,23.4,23Z"/><path d="M23.4,25.25H17.81a.25.25,0,0,1,0-.5H23.4a.25.25,0,0,1,0,.5Z"/><g class="cls-2"><rect class="cls-3" x="7.64" y="9.29" width="17.95" height="7.15"/></g></g></g></svg>