<svg xmlns="http://www.w3.org/2000/svg" viewBox="0 0 33.24 33.24"><defs><style>.cls-1{isolation:isolate;}.cls-2{fill:#eb5424;}.cls-3{mix-blend-mode:multiply;}</style></defs><title>Artboard 11</title><g class="cls-1"><g id="Layer_1" data-name="Layer 1"><path class="cls-2" d="M19.3,14.89l-.2-.63H9.94v9.35H23.58V14.89Zm-.79,6-1.65,1.2-1.66-1.2a2.8,2.8,0,0,1-1-3.14l.63-1.95H18.9l.63,1.95A2.79,2.79,0,0,1,18.51,20.88Z"/><polygon class="cls-2" points="19.53 17.74 17.49 17.74 16.86 15.79 16.23 17.74 14.18 17.74 15.83 18.94 15.2 20.88 16.86 19.68 18.51 20.88 17.88 18.94 19.53 17.74"/><path d="M23.58,23.87H9.94a.25.25,0,0,1-.25-.25V14.26A.25.25,0,0,1,9.94,14H19.1a.24.24,0,0,1,.23.17l.15.46h4.1a.25.25,0,0,1,.25.25v8.73A.25.25,0,0,1,23.58,23.87Zm-13.39-.5H23.33V15.14h-4a.26.26,0,0,1-.24-.17l-.14-.46H10.19Z"/><path d="M19.1,14.51H8.62a.25.25,0,0,1-.25-.25V9.76a.25.25,0,0,1,.25-.25h9a.25.25,0,0,1,0,.5H8.87v4H19.1a.25.25,0,0,1,0,.5Z"/><path d="M24.89,28.37H8.62a.25.25,0,0,1-.25-.25v-4.5a.25.25,0,0,1,.25-.25H24.89a.25.25,0,0,1,.25.25v4.5A.25.25,0,0,1,24.89,28.37Zm-16-.5H24.64v-4H8.87Z"/><path d="M8.15,26.43H5.46a.25.25,0,0,1,0-.5H8.15a.25.25,0,0,1,0,.5Z"/><path d="M27.78,26.43H25.12a.25.25,0,1,1,0-.5h2.66a.25.25,0,0,1,0,.5Z"/><rect x="7.34" y="25.27" width="1.05" height="1.79"/><rect x="25.12" y="25.27" width="1.03" height="1.79"/><path class="cls-2" d="M22.44,26.16H16.72a.25.25,0,0,1,0-.5h5.72a.25.25,0,0,1,0,.5Z"/><path class="cls-2" d="M18.32,12.2h-1.8a.25.25,0,0,1-.25-.25.25.25,0,0,1,.25-.25h1.8a.25.25,0,0,1,.25.25A.25.25,0,0,1,18.32,12.2Z"/><circle cx="14.04" cy="12.01" r="0.62"/><circle cx="14.04" cy="25.79" r="0.62"/><path d="M25.65,15.14H19.3a.26.26,0,0,1-.24-.17l-2-6a.25.25,0,0,1,.09-.27l5.14-3.73a.23.23,0,0,1,.29,0l5.14,3.73a.25.25,0,0,1,.09.27l-2,6A.24.24,0,0,1,25.65,15.14Zm-6.17-.5h6L27.31,9,22.47,5.44,17.64,9Z"/><g class="cls-3"><polygon class="cls-2" points="22.48 7.15 19.25 9.5 20.48 13.29 24.47 13.29 25.7 9.5 22.48 7.15"/></g></g></g></svg>