<svg id="Layer_1" data-name="Layer 1" xmlns="http://www.w3.org/2000/svg" viewBox="0 0 33.24 33.24"><defs><style>.cls-1{fill:#eb5424;}</style></defs><title>Artboard 46</title><path d="M24.84,27.62H8.4a.25.25,0,0,1-.25-.25V5.87a.25.25,0,0,1,.25-.25H24.84a.25.25,0,0,1,.25.25v21.5A.25.25,0,0,1,24.84,27.62Zm-16.19-.5H24.59v-21H8.65Z"/><path d="M16.62,10.67h-5.5a.25.25,0,0,1,0-.5h5.5a.25.25,0,0,1,0,.5Z"/><path class="cls-1" d="M21.29,10.67H19.12a.25.25,0,0,1,0-.5h2.17a.25.25,0,0,1,0,.5Z"/><path d="M16.62,13.67h-5.5a.25.25,0,0,1,0-.5h5.5a.25.25,0,0,1,0,.5Z"/><path class="cls-1" d="M22.29,13.67H19.12a.25.25,0,0,1,0-.5h3.17a.25.25,0,0,1,0,.5Z"/><path d="M16.62,16.67h-5.5a.25.25,0,1,1,0-.5h5.5a.25.25,0,1,1,0,.5Z"/><path class="cls-1" d="M20.29,16.67H19.12a.25.25,0,0,1,0-.5h1.17a.25.25,0,0,1,0,.5Z"/><path d="M16.62,19.67h-5.5a.25.25,0,1,1,0-.5h5.5a.25.25,0,1,1,0,.5Z"/><path class="cls-1" d="M22.29,19.67H19.12a.25.25,0,0,1,0-.5h3.17a.25.25,0,0,1,0,.5Z"/><path d="M16.62,22.67h-5.5a.25.25,0,1,1,0-.5h5.5a.25.25,0,1,1,0,.5Z"/><path class="cls-1" d="M19.29,22.67h-.17a.25.25,0,0,1,0-.5h.17a.25.25,0,0,1,0,.5Z"/></svg>