<svg id="Layer_1" data-name="Layer 1" xmlns="http://www.w3.org/2000/svg" viewBox="0 0 33.24 33.24"><defs><style>.cls-1{fill:#eb5424;}</style></defs><title>Artboard 59 copy 2</title><path d="M9.92,24.59H5.12a.25.25,0,0,1-.25-.25V13.09a.25.25,0,0,1,.25-.25H8.79a.25.25,0,0,1,.25.25.25.25,0,0,1-.25.25H5.37V24.09H9.92a.25.25,0,0,1,.25.25A.25.25,0,0,1,9.92,24.59Z"/><path d="M28.12,24.59H25.24a.25.25,0,0,1-.25-.25.25.25,0,0,1,.25-.25h2.88a.25.25,0,0,1,.25.25A.25.25,0,0,1,28.12,24.59Z"/><path class="cls-1" d="M14.44,27.86H12.73a3.54,3.54,0,0,1-3.52-3.52h0a3.54,3.54,0,0,1,3.52-3.53h1.71Z"/><path d="M20.26,23.09H17.7a.25.25,0,0,1,0-.5h2.56a.25.25,0,0,1,0,.5Z"/><path d="M20.26,26.08H17.7a.25.25,0,0,1,0-.5h2.56a.25.25,0,1,1,0,.5Z"/><path d="M20.47,20.81h1.71a3.53,3.53,0,0,1,3.52,3.53h0a3.53,3.53,0,0,1-3.52,3.52H20.47Z"/><path d="M9.19,14.09h0A1.12,1.12,0,0,1,8.07,13h0a1.12,1.12,0,0,1,1.12-1.11h0"/><path d="M22.4,16H12.06a3.18,3.18,0,0,1-.17-6.36A5.44,5.44,0,0,1,22,7.83a3.25,3.25,0,0,1,.44,0,4.11,4.11,0,1,1,0,8.22ZM12.05,10.16a2.68,2.68,0,0,0,0,5.36H22.4a3.61,3.61,0,1,0,0-7.22,2.94,2.94,0,0,0-.51,0,.27.27,0,0,1-.28-.13,4.94,4.94,0,0,0-9.25,1.72A.28.28,0,0,1,12.05,10.16Z"/><path class="cls-1" d="M16.91,5.65s3,.29,3.87,4.09l.86-1.46A4.87,4.87,0,0,0,16.91,5.65Z"/></svg>