<svg id="Layer_1" data-name="Layer 1" xmlns="http://www.w3.org/2000/svg" viewBox="0 0 33.24 33.24"><defs><style>.cls-1{fill:#eb5424;}</style></defs><title>Artboard 21 copy</title><path d="M16.62,28.37a.27.27,0,0,1-.16-.06L5,18.8a.32.32,0,0,1-.09-.17.31.31,0,0,1,.06-.19L16.43,5a.26.26,0,0,1,.38,0l11.5,13.48a.22.22,0,0,1,.06.19.32.32,0,0,1-.09.17l-11.5,9.51A.23.23,0,0,1,16.62,28.37ZM5.48,18.57,16.62,27.8l11.15-9.23L16.62,5.51Z"/><path class="cls-1" d="M16.62,8.28,8,18.35l8.59,7.12,8.59-7.12Zm.59,8a.25.25,0,0,0-.16.25.27.27,0,0,0,.2.23,2.86,2.86,0,0,1,2.22,2,.65.65,0,0,1-.12.56c-.41.49-1.74.55-2.7.55s-2.36-.06-2.73-.53a.68.68,0,0,1-.08-.59,2.88,2.88,0,0,1,2.21-2,.27.27,0,0,0,.2-.23.24.24,0,0,0-.16-.25,1.52,1.52,0,1,1,2.08-1.41A1.49,1.49,0,0,1,17.21,16.28Zm-5,2.11a2.16,2.16,0,0,1,1.65-1.51,1.21,1.21,0,0,1,.44-2.33,1,1,0,0,1,.35.07,2,2,0,0,0,0,.25,2,2,0,0,0,.67,1.49,1,1,0,0,1-.1.17,3.27,3.27,0,0,0-1.85,2.12,1.3,1.3,0,0,0,0,.68C12.59,19.25,12.06,19,12.22,18.39Zm7.69.93a1.31,1.31,0,0,0,.05-.63,3.19,3.19,0,0,0-2-2.21.16.16,0,0,1,0-.07,2,2,0,0,0,.72-1.54,2.46,2.46,0,0,0,0-.28.86.86,0,0,1,.28,0,1.21,1.21,0,0,1,1.21,1.21,1.19,1.19,0,0,1-.78,1.12A2.14,2.14,0,0,1,21,18.41C21.13,19,20.64,19.22,19.91,19.32Z"/></svg>