<svg id="Layer_1" data-name="Layer 1" xmlns="http://www.w3.org/2000/svg" viewBox="0 0 33.24 33.24"><defs><style>.cls-1{fill:#eb5424;}</style></defs><title>Artboard 30</title><path d="M28.12,25.87h-23a.25.25,0,0,1-.25-.25v-18a.25.25,0,0,1,.25-.25h23a.25.25,0,0,1,.25.25v18A.25.25,0,0,1,28.12,25.87Zm-22.75-.5h22.5V7.87H5.37Z"/><path d="M28.12,10.87h-23a.25.25,0,1,1,0-.5h23a.25.25,0,0,1,0,.5Z"/><circle cx="6.62" cy="9.12" r="0.5"/><circle cx="8.62" cy="9.12" r="0.5"/><circle cx="10.62" cy="9.12" r="0.5"/><path d="M27.91,14.49H5.46a.25.25,0,0,1-.25-.25A.25.25,0,0,1,5.46,14H27.91a.25.25,0,0,1,.25.25A.25.25,0,0,1,27.91,14.49Z"/><path d="M11.62,17.14H8a.25.25,0,0,1-.25-.25A.25.25,0,0,1,8,16.64h3.66a.25.25,0,0,1,.25.25A.25.25,0,0,1,11.62,17.14Z"/><path class="cls-1" d="M13.72,12.65H10.06a.25.25,0,0,1-.25-.25.25.25,0,0,1,.25-.25h3.66a.25.25,0,0,1,.25.25A.25.25,0,0,1,13.72,12.65Z"/><path d="M11.62,19.14H8a.25.25,0,0,1-.25-.25A.25.25,0,0,1,8,18.64h3.66a.25.25,0,0,1,.25.25A.25.25,0,0,1,11.62,19.14Z"/><path d="M11.62,21.14H8a.25.25,0,0,1-.25-.25A.25.25,0,0,1,8,20.64h3.66a.25.25,0,0,1,.25.25A.25.25,0,0,1,11.62,21.14Z"/><path d="M11.62,23.14H8a.25.25,0,0,1-.25-.25A.25.25,0,0,1,8,22.64h3.66a.25.25,0,0,1,.25.25A.25.25,0,0,1,11.62,23.14Z"/><circle cx="8.2" cy="12.4" r="0.62"/><path class="cls-1" d="M18.7,18.69a2.79,2.79,0,0,0,1,3.14l.63-1.94Z"/><polygon class="cls-1" points="21.37 16.74 19.33 16.74 18.7 18.69 20.74 18.69 21.37 16.74"/><polygon class="cls-1" points="24.05 18.69 23.42 16.74 21.37 16.74 22.01 18.69 24.05 18.69"/><polygon class="cls-1" points="19.72 21.83 21.37 23.04 23.03 21.83 21.37 20.63 19.72 21.83"/><path class="cls-1" d="M24.05,18.69l-1.65,1.2L23,21.83A2.8,2.8,0,0,0,24.05,18.69Z"/><path d="M14.3,25.62a.25.25,0,0,1-.25-.25V14.24A.25.25,0,0,1,14.3,14a.26.26,0,0,1,.25.25V25.37A.25.25,0,0,1,14.3,25.62Z"/></svg>