<svg id="Layer_1" data-name="Layer 1" xmlns="http://www.w3.org/2000/svg" viewBox="0 0 33.24 33.24"><defs><style>.cls-1{fill:#eb5424;}</style></defs><title>Artboard 33</title><path class="cls-1" d="M25.4,12.68,23.33,6.3H9.92L7.85,12.68A9.22,9.22,0,0,0,11.2,23l5.42,3.94L22.05,23h0A9.25,9.25,0,0,0,25.4,12.68Zm-5.62,3.83,2,6-5.12-3.71-5.11,3.71,2-6L8.34,12.79h6.33l2-6,2,6H24.9Z"/><path d="M16.62,27.25,11.05,23.2A9.46,9.46,0,0,1,7.61,12.6L9.74,6.06H23.51l2.12,6.54a9.45,9.45,0,0,1-3.44,10.6ZM11.34,22.8l5.28,3.83L21.9,22.8a9,9,0,0,0,3.26-10l-2-6.2h-13l-2,6.2a9,9,0,0,0,3.26,10Z"/></svg>