<svg id="Layer_1" data-name="Layer 1" xmlns="http://www.w3.org/2000/svg" viewBox="0 0 33.24 33.24"><defs><style>.cls-1{fill:#eb5424;}</style></defs><title>Artboard 35</title><path d="M22.4,23.25H9.71a3.85,3.85,0,0,1-.16-7.7,6.62,6.62,0,0,1,12.27-2.24,5.44,5.44,0,0,1,.58-.05,5,5,0,0,1,0,10ZM9.74,15.8l-.05.25a3.35,3.35,0,0,0,0,6.7H22.4a4.48,4.48,0,1,0-.66-8.92.25.25,0,0,1-.27-.13A6.13,6.13,0,0,0,10,15.83a.25.25,0,0,1-.25.22Z"/><path class="cls-1" d="M15.68,10.51s3.74.37,4.75,5l1.06-1.8A6,6,0,0,0,15.68,10.51Z"/></svg>