<svg id="Layer_1" data-name="Layer 1" xmlns="http://www.w3.org/2000/svg" viewBox="0 0 33.24 33.24"><defs><style>.cls-1{fill:#eb5424;}</style></defs><title>Artboard 64</title><path d="M8.4,17.11l-.2,0a1.13,1.13,0,0,1-.9-.82l-.18-.71a.63.63,0,0,0-.72-.46l-.73.12A1.13,1.13,0,0,1,4.5,13.54l.37-.64a.62.62,0,0,0-.18-.83l-.6-.43a1.14,1.14,0,0,1,.36-2l.71-.19a.62.62,0,0,0,.46-.71L5.5,8A1.1,1.1,0,0,1,6,6.87a1.13,1.13,0,0,1,1.21,0l.64.37A.62.62,0,0,0,8.65,7l.43-.6a1.14,1.14,0,0,1,2,.36l.18.71a.63.63,0,0,0,.72.46l.73-.12a1.1,1.1,0,0,1,1.12.47A1.13,1.13,0,0,1,13.9,9.5l-.37.64a.62.62,0,0,0,.18.83l.6.43a1.13,1.13,0,0,1-.36,2l-.71.19a.63.63,0,0,0-.46.72l.12.73a1.11,1.11,0,0,1-.47,1.12,1.13,1.13,0,0,1-1.21,0l-.64-.37a.62.62,0,0,0-.83.18l-.43.6A1.09,1.09,0,0,1,8.4,17.11ZM6.51,14.59a1.11,1.11,0,0,1,1.09.84l.19.71a.62.62,0,0,0,.5.46.61.61,0,0,0,.62-.26l.43-.6a1.13,1.13,0,0,1,1.49-.33l.64.37a.62.62,0,0,0,.68,0,.64.64,0,0,0,.26-.63l-.13-.73a1.12,1.12,0,0,1,.83-1.28l.71-.19a.62.62,0,0,0,.46-.5.61.61,0,0,0-.26-.62l-.6-.43a1.12,1.12,0,0,1-.32-1.49l.37-.64a.63.63,0,0,0-.66-.94l-.72.13a1.13,1.13,0,0,1-1.29-.83l-.19-.71a.62.62,0,0,0-.5-.46.61.61,0,0,0-.62.26l-.43.6a1.12,1.12,0,0,1-1.49.32l-.64-.37A.63.63,0,0,0,6,7.91l.13.72a1.13,1.13,0,0,1-.83,1.29l-.71.19a.62.62,0,0,0-.46.5.61.61,0,0,0,.26.62l.6.43a1.12,1.12,0,0,1,.32,1.49l-.37.64a.62.62,0,0,0,0,.67.63.63,0,0,0,.63.27l.72-.13Z"/><path d="M9.2,13.9a2,2,0,0,1-.42,0,2.38,2.38,0,0,1-1.54-1,2.34,2.34,0,0,1-.38-1.78,2.38,2.38,0,0,1,1-1.54,2.33,2.33,0,0,1,1.78-.38,2.38,2.38,0,0,1,1.54,1,2.33,2.33,0,0,1,.38,1.78h0A2.38,2.38,0,0,1,9.2,13.9Zm0-4.26a1.88,1.88,0,0,0-.33,3.73,1.84,1.84,0,0,0,1.4-.31,1.82,1.82,0,0,0,.78-1.21,1.84,1.84,0,0,0-.31-1.4,1.82,1.82,0,0,0-1.21-.78Zm2.1,2.26Z"/><circle class="cls-1" cx="9.2" cy="11.52" r="0.67"/><path d="M21.57,27.31a1.26,1.26,0,0,1-1.2-.85l0-.09A.78.78,0,0,0,19.09,26L19,26.1a1.29,1.29,0,0,1-2.1-1.21l0-.09a.78.78,0,0,0-.91-.91h-.09a1.26,1.26,0,0,1-1.34-.62,1.28,1.28,0,0,1,.13-1.47l.06-.07a.78.78,0,0,0-.33-1.24l-.09,0a1.28,1.28,0,0,1,0-2.41l.09,0a.78.78,0,0,0,.33-1.24l-.06-.07a1.28,1.28,0,0,1-.13-1.47,1.27,1.27,0,0,1,1.34-.62H16a.79.79,0,0,0,.91-.91v-.09a1.26,1.26,0,0,1,.62-1.34,1.28,1.28,0,0,1,1.47.13l.07.06a.78.78,0,0,0,1.24-.33l0-.09a1.28,1.28,0,0,1,2.41,0l0,.09a.78.78,0,0,0,1.24.33l.07-.06a1.28,1.28,0,0,1,1.47-.13,1.26,1.26,0,0,1,.62,1.34v.09a.78.78,0,0,0,.91.91h.09a1.26,1.26,0,0,1,1.34.62,1.28,1.28,0,0,1-.13,1.47l-.06.07A.78.78,0,0,0,28.69,18l.09,0a1.28,1.28,0,0,1,0,2.41h0l-.09,0a.78.78,0,0,0-.33,1.24l.06.07a1.28,1.28,0,0,1,.13,1.47,1.26,1.26,0,0,1-1.34.62h-.09a.78.78,0,0,0-.91.91v.09a1.26,1.26,0,0,1-.62,1.34,1.28,1.28,0,0,1-1.47-.13L24.06,26a.78.78,0,0,0-1.24.33l0,.09A1.26,1.26,0,0,1,21.57,27.31Zm-2-2a1.27,1.27,0,0,1,.34,0,1.29,1.29,0,0,1,.87.8l0,.09a.75.75,0,0,0,.73.52.76.76,0,0,0,.74-.52l0-.09a1.33,1.33,0,0,1,.88-.8,1.28,1.28,0,0,1,1.16.26l.07.06A.79.79,0,0,0,25.73,25v-.09a1.27,1.27,0,0,1,1.49-1.49h.09A.79.79,0,0,0,28,22.13L28,22.06a1.25,1.25,0,0,1-.26-1.16,1.29,1.29,0,0,1,.8-.87l.09,0a.78.78,0,0,0,0-1.47l-.09,0a1.28,1.28,0,0,1-.54-2l.06-.07a.79.79,0,0,0-.74-1.28h-.09a1.27,1.27,0,0,1-1.49-1.49v-.09a.79.79,0,0,0-1.28-.74l-.07.06a1.28,1.28,0,0,1-2-.54l0-.09a.76.76,0,0,0-.74-.52.75.75,0,0,0-.73.52l0,.09a1.28,1.28,0,0,1-2,.54l-.07-.06a.78.78,0,0,0-.9-.08.77.77,0,0,0-.38.82v.09a1.27,1.27,0,0,1-1.49,1.49h-.09a.77.77,0,0,0-.82.38.78.78,0,0,0,.08.9l.06.07a1.28,1.28,0,0,1-.54,2l-.1,0a.78.78,0,0,0,0,1.47l.09,0a1.28,1.28,0,0,1,.54,2l-.06.07A.78.78,0,0,0,15,23a.77.77,0,0,0,.82.38h.09a1.27,1.27,0,0,1,1.49,1.49V25a.77.77,0,0,0,.38.82.78.78,0,0,0,.9-.08l.07-.06A1.27,1.27,0,0,1,19.59,25.35Zm9.11-5.12Z"/><path d="M9.29,23.94a.67.67,0,0,1-.24,0,.78.78,0,0,1-.54-.64l-.17-1.37a.21.21,0,0,0-.08-.17l-1-.93a.78.78,0,0,1,.42-1.35L9,19.28a.26.26,0,0,0,.17-.09l.93-1a.78.78,0,0,1,1.35.43L11.64,20a.26.26,0,0,0,.09.16l1,.93a.78.78,0,0,1-.42,1.35h0L11,22.58a.21.21,0,0,0-.16.08l-.93,1A.76.76,0,0,1,9.29,23.94Zm1.41-5.53a.33.33,0,0,0-.2.09l-.93,1a.76.76,0,0,1-.47.24l-1.38.17a.27.27,0,0,0-.22.19.26.26,0,0,0,.07.29l1,.93a.73.73,0,0,1,.25.48L9,23.2a.24.24,0,0,0,.19.22.27.27,0,0,0,.29-.07l.93-1a.73.73,0,0,1,.47-.25l1.37-.17a.26.26,0,0,0,.23-.19.27.27,0,0,0-.07-.29l-1-.93a.73.73,0,0,1-.25-.47L11,18.66a.26.26,0,0,0-.19-.23Zm1.59,3.75h0Z"/><circle class="cls-1" cx="9.99" cy="20.93" r="0.67"/><path class="cls-1" d="M21.57,14.71a4.55,4.55,0,1,0,4.55,4.54A4.54,4.54,0,0,0,21.57,14.71Zm0,7.06a2.52,2.52,0,1,1,2.52-2.52A2.52,2.52,0,0,1,21.57,21.77Z"/><path d="M21.57,22a2.77,2.77,0,1,1,2.77-2.77A2.78,2.78,0,0,1,21.57,22Zm0-5a2.27,2.27,0,1,0,2.27,2.26A2.27,2.27,0,0,0,21.57,17Z"/></svg>